<svg xmlns="http://www.w3.org/2000/svg" width="1440" height="980" viewBox="0 0 1440 980" role="img" aria-label="Redacted supplier verification photo evidence page sample">
  <rect width="1440" height="980" fill="#eef1ef"/>
  <rect x="140" y="52" width="1160" height="876" fill="#fff" stroke="#cfd8d4"/>
  <text x="200" y="128" fill="#12211f" font-family="Arial, Helvetica, sans-serif" font-size="42" font-weight="800">Photo Evidence</text>
  <text x="200" y="168" fill="#66736f" font-family="Arial, Helvetica, sans-serif" font-size="18">Factory visit sample page with client and supplier details redacted.</text>
  <rect x="200" y="198" width="250" height="22" fill="#111827"/><rect x="482" y="198" width="350" height="22" fill="#111827"/>
  <g transform="translate(200 260)">
    <g transform="translate(0 0)"><rect width="460" height="130" fill="#65716d" stroke="#cfd8d4"/><path d="M0 92 C110 54 180 112 290 62 C360 30 410 64 460 34 L460 130 L0 130 Z" fill="#12211f" opacity=".22"/><rect x="26" y="24" width="132" height="24" fill="#111827" opacity=".74"/><rect x="26" y="62" width="222" height="18" fill="#111827" opacity=".32"/><circle cx="392" cy="48" r="22" fill="#e7a83a"/><text x="0" y="162" fill="#12211f" font-family="Arial, Helvetica, sans-serif" font-size="17" font-weight="700">Workshop overview</text></g><g transform="translate(500 0)"><rect width="460" height="130" fill="#3e4d49" stroke="#cfd8d4"/><path d="M0 92 C110 54 180 112 290 62 C360 30 410 64 460 34 L460 130 L0 130 Z" fill="#12211f" opacity=".22"/><rect x="26" y="24" width="132" height="24" fill="#111827" opacity=".74"/><rect x="26" y="62" width="222" height="18" fill="#111827" opacity=".32"/><circle cx="392" cy="48" r="22" fill="#e7a83a"/><text x="0" y="162" fill="#12211f" font-family="Arial, Helvetica, sans-serif" font-size="17" font-weight="700">Welding operation</text></g><g transform="translate(0 190)"><rect width="460" height="130" fill="#7b8178" stroke="#cfd8d4"/><path d="M0 92 C110 54 180 112 290 62 C360 30 410 64 460 34 L460 130 L0 130 Z" fill="#12211f" opacity=".22"/><rect x="26" y="24" width="132" height="24" fill="#111827" opacity=".74"/><rect x="26" y="62" width="222" height="18" fill="#111827" opacity=".32"/><circle cx="392" cy="48" r="22" fill="#e7a83a"/><text x="0" y="162" fill="#12211f" font-family="Arial, Helvetica, sans-serif" font-size="17" font-weight="700">Raw material area</text></g><g transform="translate(500 190)"><rect width="460" height="130" fill="#53615d" stroke="#cfd8d4"/><path d="M0 92 C110 54 180 112 290 62 C360 30 410 64 460 34 L460 130 L0 130 Z" fill="#12211f" opacity=".22"/><rect x="26" y="24" width="132" height="24" fill="#111827" opacity=".74"/><rect x="26" y="62" width="222" height="18" fill="#111827" opacity=".32"/><circle cx="392" cy="48" r="22" fill="#e7a83a"/><text x="0" y="162" fill="#12211f" font-family="Arial, Helvetica, sans-serif" font-size="17" font-weight="700">Dimension check</text></g><g transform="translate(0 380)"><rect width="460" height="130" fill="#cbd3d0" stroke="#cfd8d4"/><path d="M0 92 C110 54 180 112 290 62 C360 30 410 64 460 34 L460 130 L0 130 Z" fill="#12211f" opacity=".22"/><rect x="26" y="24" width="132" height="24" fill="#111827" opacity=".74"/><rect x="26" y="62" width="222" height="18" fill="#111827" opacity=".32"/><circle cx="392" cy="48" r="22" fill="#e7a83a"/><text x="0" y="162" fill="#12211f" font-family="Arial, Helvetica, sans-serif" font-size="17" font-weight="700">Material certificates</text></g><g transform="translate(500 380)"><rect width="460" height="130" fill="#42514d" stroke="#cfd8d4"/><path d="M0 92 C110 54 180 112 290 62 C360 30 410 64 460 34 L460 130 L0 130 Z" fill="#12211f" opacity=".22"/><rect x="26" y="24" width="132" height="24" fill="#111827" opacity=".74"/><rect x="26" y="62" width="222" height="18" fill="#111827" opacity=".32"/><circle cx="392" cy="48" r="22" fill="#e7a83a"/><text x="0" y="162" fill="#12211f" font-family="Arial, Helvetica, sans-serif" font-size="17" font-weight="700">Packaging readiness</text></g>
  </g>
  <rect x="200" y="850" width="920" height="1" fill="#cfd8d4"/>
  <text x="200" y="884" fill="#66736f" font-family="Arial, Helvetica, sans-serif" font-size="15">Note: This is a sample website preview. Actual reports include real site photos and buyer-specific acceptance criteria.</text>
  <text x="1130" y="884" fill="#66736f" font-family="Arial, Helvetica, sans-serif" font-size="15">SAMPLE / REDACTED</text>
</svg>